<?xml version="1.0" encoding="utf-8" standalone="no"?>
<!DOCTYPE svg PUBLIC "-//W3C//DTD SVG 1.1//EN"
  "http://www.w3.org/Graphics/SVG/1.1/DTD/svg11.dtd">
<svg xmlns:xlink="http://www.w3.org/1999/xlink" width="681.12pt" height="741.312279pt" viewBox="0 0 681.12 741.312279" xmlns="http://www.w3.org/2000/svg" version="1.1">
 <metadata>
  <rdf:RDF xmlns:dc="http://purl.org/dc/elements/1.1/" xmlns:cc="http://creativecommons.org/ns#" xmlns:rdf="http://www.w3.org/1999/02/22-rdf-syntax-ns#">
   <cc:Work>
    <dc:type rdf:resource="http://purl.org/dc/dcmitype/StillImage"/>
    <dc:date>2026-06-27T08:58:15.722740</dc:date>
    <dc:format>image/svg+xml</dc:format>
    <dc:creator>
     <cc:Agent>
      <dc:title>Matplotlib v3.10.7, https://matplotlib.org/</dc:title>
     </cc:Agent>
    </dc:creator>
   </cc:Work>
  </rdf:RDF>
 </metadata>
 <defs>
  <style type="text/css">*{stroke-linejoin: round; stroke-linecap: butt}</style>
 </defs>
 <g id="figure_1">
  <g id="patch_1">
   <path d="M 0 741.312279 
L 681.12 741.312279 
L 681.12 0 
L 0 0 
z
" style="fill: #ffffff"/>
  </g>
  <g id="axes_1">
   <g id="patch_2">
    <path d="M 158.454375 627.282683 
L 309.534597 627.282683 
L 309.534597 368.288017 
L 158.454375 368.288017 
z
" clip-path="url(#p743d668df6)" style="fill: #cfe0f5; stroke: #cfe0f5; stroke-linejoin: miter"/>
   </g>
   <g id="patch_3">
    <path d="M 532.557782 670.448461 
L 672.846559 670.448461 
L 672.846559 425.842387 
L 532.557782 425.842387 
z
" clip-path="url(#p743d668df6)" style="fill: #e6dcf3; stroke: #e6dcf3; stroke-linejoin: miter"/>
   </g>
   <g id="patch_4">
    <path d="M 532.557782 346.705128 
L 676.443707 346.705128 
L 676.443707 210.013499 
L 532.557782 210.013499 
z
" clip-path="url(#p743d668df6)" style="fill: #cdece6; stroke: #cdece6; stroke-linejoin: miter"/>
   </g>
   <g id="patch_5">
    <path d="M 399.463301 643.110135 
C 400.608071 643.110135 401.706108 642.655313 402.515582 641.845838 
C 403.325057 641.036364 403.779879 639.938327 403.779879 638.793557 
C 403.779879 637.648787 403.325057 636.55075 402.515582 635.741275 
C 401.706108 634.931801 400.608071 634.476979 399.463301 634.476979 
C 398.318531 634.476979 397.220494 634.931801 396.411019 635.741275 
C 395.601545 636.55075 395.146723 637.648787 395.146723 638.793557 
C 395.146723 639.938327 395.601545 641.036364 396.411019 641.845838 
C 397.220494 642.655313 398.318531 643.110135 399.463301 643.110135 
L 399.463301 643.110135 
z
" clip-path="url(#p743d668df6)" style="fill: none; stroke: #cc7a00; stroke-width: 2; stroke-linejoin: miter"/>
   </g>
   <g id="patch_6">
    <path d="M 399.463301 670.448461 
C 400.608071 670.448461 401.706108 669.993639 402.515582 669.184164 
C 403.325057 668.37469 403.779879 667.276653 403.779879 666.131883 
C 403.779879 664.987113 403.325057 663.889076 402.515582 663.079601 
C 401.706108 662.270127 400.608071 661.815305 399.463301 661.815305 
C 398.318531 661.815305 397.220494 662.270127 396.411019 663.079601 
C 395.601545 663.889076 395.146723 664.987113 395.146723 666.131883 
C 395.146723 667.276653 395.601545 668.37469 396.411019 669.184164 
C 397.220494 669.993639 398.318531 670.448461 399.463301 670.448461 
L 399.463301 670.448461 
z
" clip-path="url(#p743d668df6)" style="fill: none; stroke: #cc7a00; stroke-width: 2; stroke-linejoin: miter"/>
   </g>
   <g id="line2d_1">
    <path d="M 158.454375 627.282683 
L 309.534597 627.282683 
L 309.534597 368.288017 
L 158.454375 368.288017 
L 158.454375 627.282683 
" clip-path="url(#p743d668df6)" style="fill: none; stroke: #1b2536; stroke-width: 2; stroke-linecap: round"/>
   </g>
   <g id="line2d_2">
    <path d="M 158.454375 472.605313 
L 126.080042 472.605313 
" clip-path="url(#p743d668df6)" style="fill: none; stroke: #1b2536; stroke-width: 2; stroke-linecap: round"/>
   </g>
   <g id="line2d_3">
    <path d="M 158.454375 522.965387 
L 126.080042 522.965387 
" clip-path="url(#p743d668df6)" style="fill: none; stroke: #1b2536; stroke-width: 2; stroke-linecap: round"/>
   </g>
   <g id="line2d_4">
    <path d="M 309.534597 397.065202 
L 341.908931 397.065202 
" clip-path="url(#p743d668df6)" style="fill: none; stroke: #1b2536; stroke-width: 2; stroke-linecap: round"/>
   </g>
   <g id="line2d_5">
    <path d="M 309.534597 447.425276 
L 341.908931 447.425276 
" clip-path="url(#p743d668df6)" style="fill: none; stroke: #1b2536; stroke-width: 2; stroke-linecap: round"/>
   </g>
   <g id="line2d_6">
    <path d="M 309.534597 497.78535 
L 341.908931 497.78535 
" clip-path="url(#p743d668df6)" style="fill: none; stroke: #1b2536; stroke-width: 2; stroke-linecap: round"/>
   </g>
   <g id="line2d_7">
    <path d="M 309.534597 548.145424 
L 341.908931 548.145424 
" clip-path="url(#p743d668df6)" style="fill: none; stroke: #1b2536; stroke-width: 2; stroke-linecap: round"/>
   </g>
   <g id="line2d_8">
    <path d="M 309.534597 598.505498 
L 341.908931 598.505498 
" clip-path="url(#p743d668df6)" style="fill: none; stroke: #1b2536; stroke-width: 2; stroke-linecap: round"/>
   </g>
   <g id="line2d_9">
    <path d="M 532.557782 670.448461 
L 672.846559 670.448461 
L 672.846559 425.842387 
L 532.557782 425.842387 
L 532.557782 670.448461 
" clip-path="url(#p743d668df6)" style="fill: none; stroke: #1b2536; stroke-width: 2; stroke-linecap: round"/>
   </g>
   <g id="line2d_10">
    <path d="M 532.557782 447.425276 
L 500.183449 447.425276 
" clip-path="url(#p743d668df6)" style="fill: none; stroke: #1b2536; stroke-width: 2; stroke-linecap: round"/>
   </g>
   <g id="line2d_11">
    <path d="M 532.557782 497.78535 
L 500.183449 497.78535 
" clip-path="url(#p743d668df6)" style="fill: none; stroke: #1b2536; stroke-width: 2; stroke-linecap: round"/>
   </g>
   <g id="line2d_12">
    <path d="M 532.557782 548.145424 
L 500.183449 548.145424 
" clip-path="url(#p743d668df6)" style="fill: none; stroke: #1b2536; stroke-width: 2; stroke-linecap: round"/>
   </g>
   <g id="line2d_13">
    <path d="M 532.557782 598.505498 
L 500.183449 598.505498 
" clip-path="url(#p743d668df6)" style="fill: none; stroke: #1b2536; stroke-width: 2; stroke-linecap: round"/>
   </g>
   <g id="line2d_14">
    <path d="M 532.557782 648.865572 
L 500.183449 648.865572 
" clip-path="url(#p743d668df6)" style="fill: none; stroke: #1b2536; stroke-width: 2; stroke-linecap: round"/>
   </g>
   <g id="line2d_15">
    <path d="M 532.557782 346.705128 
L 676.443707 346.705128 
L 676.443707 210.013499 
L 532.557782 210.013499 
L 532.557782 346.705128 
" clip-path="url(#p743d668df6)" style="fill: none; stroke: #1b2536; stroke-width: 2; stroke-linecap: round"/>
   </g>
   <g id="line2d_16">
    <path d="M 532.557782 231.596388 
L 500.183449 231.596388 
" clip-path="url(#p743d668df6)" style="fill: none; stroke: #1b2536; stroke-width: 2; stroke-linecap: round"/>
   </g>
   <g id="line2d_17">
    <path d="M 532.557782 278.359313 
L 500.183449 278.359313 
" clip-path="url(#p743d668df6)" style="fill: none; stroke: #1b2536; stroke-width: 2; stroke-linecap: round"/>
   </g>
   <g id="line2d_18">
    <path d="M 532.557782 325.122239 
L 500.183449 325.122239 
" clip-path="url(#p743d668df6)" style="fill: none; stroke: #1b2536; stroke-width: 2; stroke-linecap: round"/>
   </g>
   <g id="line2d_19">
    <path d="M 341.908931 397.065202 
L 341.908931 278.359313 
L 491.190578 278.359313 
" clip-path="url(#p743d668df6)" style="fill: none; stroke: #cc7a00; stroke-width: 2; stroke-linecap: round"/>
   </g>
   <g id="patch_7">
    <path d="M 491.190578 275.661452 
L 500.183449 278.359313 
L 491.190578 281.057175 
z
" clip-path="url(#p743d668df6)" style="fill: #cc7a00"/>
   </g>
   <g id="line2d_20">
    <path d="M 341.908931 447.425276 
L 491.190578 447.425276 
" clip-path="url(#p743d668df6)" style="fill: none; stroke: #cc7a00; stroke-width: 2; stroke-linecap: round"/>
   </g>
   <g id="patch_8">
    <path d="M 491.190578 444.727415 
L 500.183449 447.425276 
L 491.190578 450.123137 
z
" clip-path="url(#p743d668df6)" style="fill: #cc7a00"/>
   </g>
   <g id="line2d_21">
    <path d="M 341.908931 497.78535 
L 491.190578 497.78535 
" clip-path="url(#p743d668df6)" style="fill: none; stroke: #cc7a00; stroke-width: 2; stroke-linecap: round"/>
   </g>
   <g id="patch_9">
    <path d="M 491.190578 495.087489 
L 500.183449 497.78535 
L 491.190578 500.483211 
z
" clip-path="url(#p743d668df6)" style="fill: #cc7a00"/>
   </g>
   <g id="line2d_22">
    <path d="M 341.908931 548.145424 
L 491.190578 548.145424 
" clip-path="url(#p743d668df6)" style="fill: none; stroke: #cc7a00; stroke-width: 2; stroke-linecap: round"/>
   </g>
   <g id="patch_10">
    <path d="M 491.190578 545.447563 
L 500.183449 548.145424 
L 491.190578 550.843285 
z
" clip-path="url(#p743d668df6)" style="fill: #cc7a00"/>
   </g>
   <g id="line2d_23">
    <path d="M 341.908931 598.505498 
L 370.686116 598.505498 
L 399.463301 598.505498 
" clip-path="url(#p743d668df6)" style="fill: none; stroke: #cc7a00; stroke-width: 2; stroke-linecap: round"/>
   </g>
   <g id="line2d_24">
    <path d="M 399.463301 598.505498 
L 399.463301 634.476979 
M 410.254745 638.793557 
L 410.254745 666.131883 
M 410.254745 652.46272 
L 417.449041 652.46272 
M 399.463301 670.448461 
L 399.463301 706.419942 
" clip-path="url(#p743d668df6)" style="fill: none; stroke: #cc7a00; stroke-width: 2; stroke-linecap: round"/>
   </g>
   <g id="line2d_25">
    <path d="M 399.463301 706.419942 
L 399.463301 710.01709 
L 399.463301 713.614238 
" clip-path="url(#p743d668df6)" style="fill: none; stroke: #222222; stroke-width: 2; stroke-linecap: round"/>
   </g>
   <g id="line2d_26">
    <path d="M 18.165598 713.614238 
L 266.36882 713.614238 
L 514.572041 713.614238 
" clip-path="url(#p743d668df6)" style="fill: none; stroke: #222222; stroke-width: 3; stroke-linecap: round"/>
   </g>
   <g id="line2d_27">
    <path d="M 82.914265 713.614238 
L 82.914265 728.002831 
L 73.921394 728.002831 
L 91.907135 728.002831 
M 76.619255 732.319409 
L 89.209274 732.319409 
M 81.115691 736.635986 
L 84.712839 736.635986 
" clip-path="url(#p743d668df6)" style="fill: none; stroke: #222222; stroke-width: 2; stroke-linecap: round"/>
   </g>
   <g id="line2d_28">
    <path d="M 126.080042 522.965387 
L 126.080042 713.614238 
L 126.080042 713.614238 
" clip-path="url(#p743d668df6)" style="fill: none; stroke: #222222; stroke-width: 2; stroke-linecap: round"/>
   </g>
   <g id="line2d_29">
    <path d="M 500.183449 598.505498 
L 500.183449 713.614238 
L 500.183449 713.614238 
" clip-path="url(#p743d668df6)" style="fill: none; stroke: #222222; stroke-width: 2; stroke-linecap: round"/>
   </g>
   <g id="line2d_30">
    <path d="M 500.183449 648.865572 
L 500.183449 713.614238 
L 500.183449 713.614238 
" clip-path="url(#p743d668df6)" style="fill: none; stroke: #222222; stroke-width: 2; stroke-linecap: round"/>
   </g>
   <g id="line2d_31">
    <path d="M 500.183449 325.122239 
L 259.174523 325.122239 
L 18.165598 325.122239 
" clip-path="url(#p743d668df6)" style="fill: none; stroke: #222222; stroke-width: 2; stroke-linecap: round"/>
   </g>
   <g id="line2d_32">
    <path d="M 18.165598 325.122239 
L 18.165598 519.368239 
L 18.165598 713.614238 
" clip-path="url(#p743d668df6)" style="fill: none; stroke: #222222; stroke-width: 2; stroke-linecap: round"/>
   </g>
   <g id="line2d_33">
    <path d="M 18.165598 174.042017 
L 259.174523 174.042017 
L 500.183449 174.042017 
" clip-path="url(#p743d668df6)" style="fill: none; stroke: #c81e1e; stroke-width: 2; stroke-linecap: round"/>
   </g>
   <g id="line2d_34">
    <path d="M 126.080042 472.605313 
L 126.080042 174.042017 
L 126.080042 174.042017 
" clip-path="url(#p743d668df6)" style="fill: none; stroke: #c81e1e; stroke-width: 2; stroke-linecap: round"/>
   </g>
   <g id="line2d_35">
    <path d="M 500.183449 174.042017 
L 500.183449 174.042017 
L 500.183449 231.596388 
" clip-path="url(#p743d668df6)" style="fill: none; stroke: #c81e1e; stroke-width: 2; stroke-linecap: round"/>
   </g>
   <g id="line2d_36">
    <path d="M 18.165598 174.042017 
L 18.165598 183.034888 
L 18.165598 192.027758 
" clip-path="url(#p743d668df6)" style="fill: none; stroke: #c81e1e; stroke-width: 2; stroke-linecap: round"/>
   </g>
   <g id="line2d_37">
    <path d="M 18.165598 192.027758 
L 18.165598 197.42348 
M 21.762746 206.056636 
L 34.352765 226.200665 
M 18.165598 233.394962 
L 18.165598 238.790684 
" clip-path="url(#p743d668df6)" style="fill: none; stroke: #c81e1e; stroke-width: 2; stroke-linecap: round"/>
   </g>
   <g id="line2d_38">
    <path d="M 18.165598 238.790684 
L 18.165598 257.45089 
M 18.165598 277.684848 
L 18.165598 296.345054 
" clip-path="url(#p743d668df6)" style="fill: none; stroke: #c81e1e; stroke-width: 2; stroke-linecap: round"/>
   </g>
   <g id="line2d_39">
    <path d="M 31.654904 257.45089 
L 4.676293 257.45089 
" clip-path="url(#p743d668df6)" style="fill: none; stroke: #c81e1e; stroke-width: 2; stroke-linecap: round"/>
   </g>
   <g id="line2d_40">
    <path d="M 24.910251 264.195543 
L 11.420945 264.195543 
" clip-path="url(#p743d668df6)" style="fill: none; stroke: #c81e1e; stroke-width: 2; stroke-linecap: round"/>
   </g>
   <g id="line2d_41">
    <path d="M 31.654904 270.940195 
L 4.676293 270.940195 
" clip-path="url(#p743d668df6)" style="fill: none; stroke: #c81e1e; stroke-width: 2; stroke-linecap: round"/>
   </g>
   <g id="line2d_42">
    <path d="M 24.910251 277.684848 
L 11.420945 277.684848 
" clip-path="url(#p743d668df6)" style="fill: none; stroke: #c81e1e; stroke-width: 2; stroke-linecap: round"/>
   </g>
   <g id="line2d_43">
    <path d="M 18.165598 296.345054 
L 18.165598 310.733647 
L 18.165598 325.122239 
" clip-path="url(#p743d668df6)" style="fill: none; stroke: #222222; stroke-width: 2; stroke-linecap: round"/>
   </g>
   <g id="line2d_44">
    <path d="M 18.165598 80.516166 
L 36.151339 80.516166 
L 54.137079 80.516166 
" clip-path="url(#p743d668df6)" style="fill: none; stroke: #c81e1e; stroke-width: 2; stroke-linecap: round"/>
   </g>
   <g id="line2d_45">
    <path d="M 18.165598 105.696203 
L 36.151339 105.696203 
L 54.137079 105.696203 
" clip-path="url(#p743d668df6)" style="fill: none; stroke: #cc7a00; stroke-width: 2; stroke-linecap: round"/>
   </g>
   <g id="line2d_46">
    <path d="M 18.165598 130.87624 
L 36.151339 130.87624 
L 54.137079 130.87624 
" clip-path="url(#p743d668df6)" style="fill: none; stroke: #222222; stroke-width: 2; stroke-linecap: round"/>
   </g>
   <g id="text_1">
    <!-- VSYS -->
    <g style="fill: #1b2536" transform="translate(163.850098 476.468438) scale(0.14 -0.14)">
     <defs>
      <path id="DejaVuSans-56" d="M 1831 0 
L 50 4666 
L 709 4666 
L 2188 738 
L 3669 4666 
L 4325 4666 
L 2547 0 
L 1831 0 
z
" transform="scale(0.015625)"/>
      <path id="DejaVuSans-53" d="M 3425 4513 
L 3425 3897 
Q 3066 4069 2747 4153 
Q 2428 4238 2131 4238 
Q 1616 4238 1336 4038 
Q 1056 3838 1056 3469 
Q 1056 3159 1242 3001 
Q 1428 2844 1947 2747 
L 2328 2669 
Q 3034 2534 3370 2195 
Q 3706 1856 3706 1288 
Q 3706 609 3251 259 
Q 2797 -91 1919 -91 
Q 1588 -91 1214 -16 
Q 841 59 441 206 
L 441 856 
Q 825 641 1194 531 
Q 1563 422 1919 422 
Q 2459 422 2753 634 
Q 3047 847 3047 1241 
Q 3047 1584 2836 1778 
Q 2625 1972 2144 2069 
L 1759 2144 
Q 1053 2284 737 2584 
Q 422 2884 422 3419 
Q 422 4038 858 4394 
Q 1294 4750 2059 4750 
Q 2388 4750 2728 4690 
Q 3069 4631 3425 4513 
z
" transform="scale(0.015625)"/>
      <path id="DejaVuSans-59" d="M -13 4666 
L 666 4666 
L 1959 2747 
L 3244 4666 
L 3922 4666 
L 2272 2222 
L 2272 0 
L 1638 0 
L 1638 2222 
L -13 4666 
z
" transform="scale(0.015625)"/>
     </defs>
     <use xlink:href="#DejaVuSans-56"/>
     <use xlink:href="#DejaVuSans-53" transform="translate(68.408203 0)"/>
     <use xlink:href="#DejaVuSans-59" transform="translate(131.884766 0)"/>
     <use xlink:href="#DejaVuSans-53" transform="translate(192.96875 0)"/>
    </g>
   </g>
   <g id="text_2">
    <!-- GND -->
    <g style="fill: #1b2536" transform="translate(163.850098 526.828512) scale(0.14 -0.14)">
     <defs>
      <path id="DejaVuSans-47" d="M 3809 666 
L 3809 1919 
L 2778 1919 
L 2778 2438 
L 4434 2438 
L 4434 434 
Q 4069 175 3628 42 
Q 3188 -91 2688 -91 
Q 1594 -91 976 548 
Q 359 1188 359 2328 
Q 359 3472 976 4111 
Q 1594 4750 2688 4750 
Q 3144 4750 3555 4637 
Q 3966 4525 4313 4306 
L 4313 3634 
Q 3963 3931 3569 4081 
Q 3175 4231 2741 4231 
Q 1884 4231 1454 3753 
Q 1025 3275 1025 2328 
Q 1025 1384 1454 906 
Q 1884 428 2741 428 
Q 3075 428 3337 486 
Q 3600 544 3809 666 
z
" transform="scale(0.015625)"/>
      <path id="DejaVuSans-4e" d="M 628 4666 
L 1478 4666 
L 3547 763 
L 3547 4666 
L 4159 4666 
L 4159 0 
L 3309 0 
L 1241 3903 
L 1241 0 
L 628 0 
L 628 4666 
z
" transform="scale(0.015625)"/>
      <path id="DejaVuSans-44" d="M 1259 4147 
L 1259 519 
L 2022 519 
Q 2988 519 3436 956 
Q 3884 1394 3884 2338 
Q 3884 3275 3436 3711 
Q 2988 4147 2022 4147 
L 1259 4147 
z
M 628 4666 
L 1925 4666 
Q 3281 4666 3915 4102 
Q 4550 3538 4550 2338 
Q 4550 1131 3912 565 
Q 3275 0 1925 0 
L 628 0 
L 628 4666 
z
" transform="scale(0.015625)"/>
     </defs>
     <use xlink:href="#DejaVuSans-47"/>
     <use xlink:href="#DejaVuSans-4e" transform="translate(77.490234 0)"/>
     <use xlink:href="#DejaVuSans-44" transform="translate(152.294922 0)"/>
    </g>
   </g>
   <g id="text_3">
    <!-- GP0 -->
    <g style="fill: #1b2536" transform="translate(275.942 400.928327) scale(0.14 -0.14)">
     <defs>
      <path id="DejaVuSans-50" d="M 1259 4147 
L 1259 2394 
L 2053 2394 
Q 2494 2394 2734 2622 
Q 2975 2850 2975 3272 
Q 2975 3691 2734 3919 
Q 2494 4147 2053 4147 
L 1259 4147 
z
M 628 4666 
L 2053 4666 
Q 2838 4666 3239 4311 
Q 3641 3956 3641 3272 
Q 3641 2581 3239 2228 
Q 2838 1875 2053 1875 
L 1259 1875 
L 1259 0 
L 628 0 
L 628 4666 
z
" transform="scale(0.015625)"/>
      <path id="DejaVuSans-30" d="M 2034 4250 
Q 1547 4250 1301 3770 
Q 1056 3291 1056 2328 
Q 1056 1369 1301 889 
Q 1547 409 2034 409 
Q 2525 409 2770 889 
Q 3016 1369 3016 2328 
Q 3016 3291 2770 3770 
Q 2525 4250 2034 4250 
z
M 2034 4750 
Q 2819 4750 3233 4129 
Q 3647 3509 3647 2328 
Q 3647 1150 3233 529 
Q 2819 -91 2034 -91 
Q 1250 -91 836 529 
Q 422 1150 422 2328 
Q 422 3509 836 4129 
Q 1250 4750 2034 4750 
z
" transform="scale(0.015625)"/>
     </defs>
     <use xlink:href="#DejaVuSans-47"/>
     <use xlink:href="#DejaVuSans-50" transform="translate(77.490234 0)"/>
     <use xlink:href="#DejaVuSans-30" transform="translate(137.792969 0)"/>
    </g>
   </g>
   <g id="text_4">
    <!-- GP12 -->
    <g style="fill: #1b2536" transform="translate(267.0345 451.288401) scale(0.14 -0.14)">
     <defs>
      <path id="DejaVuSans-31" d="M 794 531 
L 1825 531 
L 1825 4091 
L 703 3866 
L 703 4441 
L 1819 4666 
L 2450 4666 
L 2450 531 
L 3481 531 
L 3481 0 
L 794 0 
L 794 531 
z
" transform="scale(0.015625)"/>
      <path id="DejaVuSans-32" d="M 1228 531 
L 3431 531 
L 3431 0 
L 469 0 
L 469 531 
Q 828 903 1448 1529 
Q 2069 2156 2228 2338 
Q 2531 2678 2651 2914 
Q 2772 3150 2772 3378 
Q 2772 3750 2511 3984 
Q 2250 4219 1831 4219 
Q 1534 4219 1204 4116 
Q 875 4013 500 3803 
L 500 4441 
Q 881 4594 1212 4672 
Q 1544 4750 1819 4750 
Q 2544 4750 2975 4387 
Q 3406 4025 3406 3419 
Q 3406 3131 3298 2873 
Q 3191 2616 2906 2266 
Q 2828 2175 2409 1742 
Q 1991 1309 1228 531 
z
" transform="scale(0.015625)"/>
     </defs>
     <use xlink:href="#DejaVuSans-47"/>
     <use xlink:href="#DejaVuSans-50" transform="translate(77.490234 0)"/>
     <use xlink:href="#DejaVuSans-31" transform="translate(137.792969 0)"/>
     <use xlink:href="#DejaVuSans-32" transform="translate(201.416016 0)"/>
    </g>
   </g>
   <g id="text_5">
    <!-- GP13 -->
    <g style="fill: #1b2536" transform="translate(267.0345 501.648475) scale(0.14 -0.14)">
     <defs>
      <path id="DejaVuSans-33" d="M 2597 2516 
Q 3050 2419 3304 2112 
Q 3559 1806 3559 1356 
Q 3559 666 3084 287 
Q 2609 -91 1734 -91 
Q 1441 -91 1130 -33 
Q 819 25 488 141 
L 488 750 
Q 750 597 1062 519 
Q 1375 441 1716 441 
Q 2309 441 2620 675 
Q 2931 909 2931 1356 
Q 2931 1769 2642 2001 
Q 2353 2234 1838 2234 
L 1294 2234 
L 1294 2753 
L 1863 2753 
Q 2328 2753 2575 2939 
Q 2822 3125 2822 3475 
Q 2822 3834 2567 4026 
Q 2313 4219 1838 4219 
Q 1578 4219 1281 4162 
Q 984 4106 628 3988 
L 628 4550 
Q 988 4650 1302 4700 
Q 1616 4750 1894 4750 
Q 2613 4750 3031 4423 
Q 3450 4097 3450 3541 
Q 3450 3153 3228 2886 
Q 3006 2619 2597 2516 
z
" transform="scale(0.015625)"/>
     </defs>
     <use xlink:href="#DejaVuSans-47"/>
     <use xlink:href="#DejaVuSans-50" transform="translate(77.490234 0)"/>
     <use xlink:href="#DejaVuSans-31" transform="translate(137.792969 0)"/>
     <use xlink:href="#DejaVuSans-33" transform="translate(201.416016 0)"/>
    </g>
   </g>
   <g id="text_6">
    <!-- GP14 -->
    <g style="fill: #1b2536" transform="translate(267.0345 552.008549) scale(0.14 -0.14)">
     <defs>
      <path id="DejaVuSans-34" d="M 2419 4116 
L 825 1625 
L 2419 1625 
L 2419 4116 
z
M 2253 4666 
L 3047 4666 
L 3047 1625 
L 3713 1625 
L 3713 1100 
L 3047 1100 
L 3047 0 
L 2419 0 
L 2419 1100 
L 313 1100 
L 313 1709 
L 2253 4666 
z
" transform="scale(0.015625)"/>
     </defs>
     <use xlink:href="#DejaVuSans-47"/>
     <use xlink:href="#DejaVuSans-50" transform="translate(77.490234 0)"/>
     <use xlink:href="#DejaVuSans-31" transform="translate(137.792969 0)"/>
     <use xlink:href="#DejaVuSans-34" transform="translate(201.416016 0)"/>
    </g>
   </g>
   <g id="text_7">
    <!-- GP15 -->
    <g style="fill: #1b2536" transform="translate(267.0345 602.368623) scale(0.14 -0.14)">
     <defs>
      <path id="DejaVuSans-35" d="M 691 4666 
L 3169 4666 
L 3169 4134 
L 1269 4134 
L 1269 2991 
Q 1406 3038 1543 3061 
Q 1681 3084 1819 3084 
Q 2600 3084 3056 2656 
Q 3513 2228 3513 1497 
Q 3513 744 3044 326 
Q 2575 -91 1722 -91 
Q 1428 -91 1123 -41 
Q 819 9 494 109 
L 494 744 
Q 775 591 1075 516 
Q 1375 441 1709 441 
Q 2250 441 2565 725 
Q 2881 1009 2881 1497 
Q 2881 1984 2565 2268 
Q 2250 2553 1709 2553 
Q 1456 2553 1204 2497 
Q 953 2441 691 2322 
L 691 4666 
z
" transform="scale(0.015625)"/>
     </defs>
     <use xlink:href="#DejaVuSans-47"/>
     <use xlink:href="#DejaVuSans-50" transform="translate(77.490234 0)"/>
     <use xlink:href="#DejaVuSans-31" transform="translate(137.792969 0)"/>
     <use xlink:href="#DejaVuSans-35" transform="translate(201.416016 0)"/>
    </g>
   </g>
   <g id="text_8">
    <!-- Raspberry -->
    <g style="fill: #1b2536" transform="translate(207.065697 491.692577) scale(0.12 -0.12)">
     <defs>
      <path id="DejaVuSans-52" d="M 2841 2188 
Q 3044 2119 3236 1894 
Q 3428 1669 3622 1275 
L 4263 0 
L 3584 0 
L 2988 1197 
Q 2756 1666 2539 1819 
Q 2322 1972 1947 1972 
L 1259 1972 
L 1259 0 
L 628 0 
L 628 4666 
L 2053 4666 
Q 2853 4666 3247 4331 
Q 3641 3997 3641 3322 
Q 3641 2881 3436 2590 
Q 3231 2300 2841 2188 
z
M 1259 4147 
L 1259 2491 
L 2053 2491 
Q 2509 2491 2742 2702 
Q 2975 2913 2975 3322 
Q 2975 3731 2742 3939 
Q 2509 4147 2053 4147 
L 1259 4147 
z
" transform="scale(0.015625)"/>
      <path id="DejaVuSans-61" d="M 2194 1759 
Q 1497 1759 1228 1600 
Q 959 1441 959 1056 
Q 959 750 1161 570 
Q 1363 391 1709 391 
Q 2188 391 2477 730 
Q 2766 1069 2766 1631 
L 2766 1759 
L 2194 1759 
z
M 3341 1997 
L 3341 0 
L 2766 0 
L 2766 531 
Q 2569 213 2275 61 
Q 1981 -91 1556 -91 
Q 1019 -91 701 211 
Q 384 513 384 1019 
Q 384 1609 779 1909 
Q 1175 2209 1959 2209 
L 2766 2209 
L 2766 2266 
Q 2766 2663 2505 2880 
Q 2244 3097 1772 3097 
Q 1472 3097 1187 3025 
Q 903 2953 641 2809 
L 641 3341 
Q 956 3463 1253 3523 
Q 1550 3584 1831 3584 
Q 2591 3584 2966 3190 
Q 3341 2797 3341 1997 
z
" transform="scale(0.015625)"/>
      <path id="DejaVuSans-73" d="M 2834 3397 
L 2834 2853 
Q 2591 2978 2328 3040 
Q 2066 3103 1784 3103 
Q 1356 3103 1142 2972 
Q 928 2841 928 2578 
Q 928 2378 1081 2264 
Q 1234 2150 1697 2047 
L 1894 2003 
Q 2506 1872 2764 1633 
Q 3022 1394 3022 966 
Q 3022 478 2636 193 
Q 2250 -91 1575 -91 
Q 1294 -91 989 -36 
Q 684 19 347 128 
L 347 722 
Q 666 556 975 473 
Q 1284 391 1588 391 
Q 1994 391 2212 530 
Q 2431 669 2431 922 
Q 2431 1156 2273 1281 
Q 2116 1406 1581 1522 
L 1381 1569 
Q 847 1681 609 1914 
Q 372 2147 372 2553 
Q 372 3047 722 3315 
Q 1072 3584 1716 3584 
Q 2034 3584 2315 3537 
Q 2597 3491 2834 3397 
z
" transform="scale(0.015625)"/>
      <path id="DejaVuSans-70" d="M 1159 525 
L 1159 -1331 
L 581 -1331 
L 581 3500 
L 1159 3500 
L 1159 2969 
Q 1341 3281 1617 3432 
Q 1894 3584 2278 3584 
Q 2916 3584 3314 3078 
Q 3713 2572 3713 1747 
Q 3713 922 3314 415 
Q 2916 -91 2278 -91 
Q 1894 -91 1617 61 
Q 1341 213 1159 525 
z
M 3116 1747 
Q 3116 2381 2855 2742 
Q 2594 3103 2138 3103 
Q 1681 3103 1420 2742 
Q 1159 2381 1159 1747 
Q 1159 1113 1420 752 
Q 1681 391 2138 391 
Q 2594 391 2855 752 
Q 3116 1113 3116 1747 
z
" transform="scale(0.015625)"/>
      <path id="DejaVuSans-62" d="M 3116 1747 
Q 3116 2381 2855 2742 
Q 2594 3103 2138 3103 
Q 1681 3103 1420 2742 
Q 1159 2381 1159 1747 
Q 1159 1113 1420 752 
Q 1681 391 2138 391 
Q 2594 391 2855 752 
Q 3116 1113 3116 1747 
z
M 1159 2969 
Q 1341 3281 1617 3432 
Q 1894 3584 2278 3584 
Q 2916 3584 3314 3078 
Q 3713 2572 3713 1747 
Q 3713 922 3314 415 
Q 2916 -91 2278 -91 
Q 1894 -91 1617 61 
Q 1341 213 1159 525 
L 1159 0 
L 581 0 
L 581 4863 
L 1159 4863 
L 1159 2969 
z
" transform="scale(0.015625)"/>
      <path id="DejaVuSans-65" d="M 3597 1894 
L 3597 1613 
L 953 1613 
Q 991 1019 1311 708 
Q 1631 397 2203 397 
Q 2534 397 2845 478 
Q 3156 559 3463 722 
L 3463 178 
Q 3153 47 2828 -22 
Q 2503 -91 2169 -91 
Q 1331 -91 842 396 
Q 353 884 353 1716 
Q 353 2575 817 3079 
Q 1281 3584 2069 3584 
Q 2775 3584 3186 3129 
Q 3597 2675 3597 1894 
z
M 3022 2063 
Q 3016 2534 2758 2815 
Q 2500 3097 2075 3097 
Q 1594 3097 1305 2825 
Q 1016 2553 972 2059 
L 3022 2063 
z
" transform="scale(0.015625)"/>
      <path id="DejaVuSans-72" d="M 2631 2963 
Q 2534 3019 2420 3045 
Q 2306 3072 2169 3072 
Q 1681 3072 1420 2755 
Q 1159 2438 1159 1844 
L 1159 0 
L 581 0 
L 581 3500 
L 1159 3500 
L 1159 2956 
Q 1341 3275 1631 3429 
Q 1922 3584 2338 3584 
Q 2397 3584 2469 3576 
Q 2541 3569 2628 3553 
L 2631 2963 
z
" transform="scale(0.015625)"/>
      <path id="DejaVuSans-79" d="M 2059 -325 
Q 1816 -950 1584 -1140 
Q 1353 -1331 966 -1331 
L 506 -1331 
L 506 -850 
L 844 -850 
Q 1081 -850 1212 -737 
Q 1344 -625 1503 -206 
L 1606 56 
L 191 3500 
L 800 3500 
L 1894 763 
L 2988 3500 
L 3597 3500 
L 2059 -325 
z
" transform="scale(0.015625)"/>
     </defs>
     <use xlink:href="#DejaVuSans-52"/>
     <use xlink:href="#DejaVuSans-61" transform="translate(67.232422 0)"/>
     <use xlink:href="#DejaVuSans-73" transform="translate(128.511719 0)"/>
     <use xlink:href="#DejaVuSans-70" transform="translate(180.611328 0)"/>
     <use xlink:href="#DejaVuSans-62" transform="translate(244.087891 0)"/>
     <use xlink:href="#DejaVuSans-65" transform="translate(307.564453 0)"/>
     <use xlink:href="#DejaVuSans-72" transform="translate(369.087891 0)"/>
     <use xlink:href="#DejaVuSans-72" transform="translate(408.451172 0)"/>
     <use xlink:href="#DejaVuSans-79" transform="translate(449.564453 0)"/>
    </g>
    <!-- Pi Pico -->
    <g style="fill: #1b2536" transform="translate(218.415072 503.306327) scale(0.12 -0.12)">
     <defs>
      <path id="DejaVuSans-69" d="M 603 3500 
L 1178 3500 
L 1178 0 
L 603 0 
L 603 3500 
z
M 603 4863 
L 1178 4863 
L 1178 4134 
L 603 4134 
L 603 4863 
z
" transform="scale(0.015625)"/>
      <path id="DejaVuSans-20" transform="scale(0.015625)"/>
      <path id="DejaVuSans-63" d="M 3122 3366 
L 3122 2828 
Q 2878 2963 2633 3030 
Q 2388 3097 2138 3097 
Q 1578 3097 1268 2742 
Q 959 2388 959 1747 
Q 959 1106 1268 751 
Q 1578 397 2138 397 
Q 2388 397 2633 464 
Q 2878 531 3122 666 
L 3122 134 
Q 2881 22 2623 -34 
Q 2366 -91 2075 -91 
Q 1284 -91 818 406 
Q 353 903 353 1747 
Q 353 2603 823 3093 
Q 1294 3584 2113 3584 
Q 2378 3584 2631 3529 
Q 2884 3475 3122 3366 
z
" transform="scale(0.015625)"/>
      <path id="DejaVuSans-6f" d="M 1959 3097 
Q 1497 3097 1228 2736 
Q 959 2375 959 1747 
Q 959 1119 1226 758 
Q 1494 397 1959 397 
Q 2419 397 2687 759 
Q 2956 1122 2956 1747 
Q 2956 2369 2687 2733 
Q 2419 3097 1959 3097 
z
M 1959 3584 
Q 2709 3584 3137 3096 
Q 3566 2609 3566 1747 
Q 3566 888 3137 398 
Q 2709 -91 1959 -91 
Q 1206 -91 779 398 
Q 353 888 353 1747 
Q 353 2609 779 3096 
Q 1206 3584 1959 3584 
z
" transform="scale(0.015625)"/>
     </defs>
     <use xlink:href="#DejaVuSans-50"/>
     <use xlink:href="#DejaVuSans-69" transform="translate(58.052734 0)"/>
     <use xlink:href="#DejaVuSans-20" transform="translate(85.835938 0)"/>
     <use xlink:href="#DejaVuSans-50" transform="translate(117.623047 0)"/>
     <use xlink:href="#DejaVuSans-69" transform="translate(175.675781 0)"/>
     <use xlink:href="#DejaVuSans-63" transform="translate(203.458984 0)"/>
     <use xlink:href="#DejaVuSans-6f" transform="translate(258.439453 0)"/>
    </g>
   </g>
   <g id="text_9">
    <!-- A -->
    <g style="fill: #1b2536" transform="translate(537.953504 451.288401) scale(0.14 -0.14)">
     <defs>
      <path id="DejaVuSans-41" d="M 2188 4044 
L 1331 1722 
L 3047 1722 
L 2188 4044 
z
M 1831 4666 
L 2547 4666 
L 4325 0 
L 3669 0 
L 3244 1197 
L 1141 1197 
L 716 0 
L 50 0 
L 1831 4666 
z
" transform="scale(0.015625)"/>
     </defs>
     <use xlink:href="#DejaVuSans-41"/>
    </g>
   </g>
   <g id="text_10">
    <!-- B -->
    <g style="fill: #1b2536" transform="translate(537.953504 501.648475) scale(0.14 -0.14)">
     <defs>
      <path id="DejaVuSans-42" d="M 1259 2228 
L 1259 519 
L 2272 519 
Q 2781 519 3026 730 
Q 3272 941 3272 1375 
Q 3272 1813 3026 2020 
Q 2781 2228 2272 2228 
L 1259 2228 
z
M 1259 4147 
L 1259 2741 
L 2194 2741 
Q 2656 2741 2882 2914 
Q 3109 3088 3109 3444 
Q 3109 3797 2882 3972 
Q 2656 4147 2194 4147 
L 1259 4147 
z
M 628 4666 
L 2241 4666 
Q 2963 4666 3353 4366 
Q 3744 4066 3744 3513 
Q 3744 3084 3544 2831 
Q 3344 2578 2956 2516 
Q 3422 2416 3680 2098 
Q 3938 1781 3938 1306 
Q 3938 681 3513 340 
Q 3088 0 2303 0 
L 628 0 
L 628 4666 
z
" transform="scale(0.015625)"/>
     </defs>
     <use xlink:href="#DejaVuSans-42"/>
    </g>
   </g>
   <g id="text_11">
    <!-- SW -->
    <g style="fill: #1b2536" transform="translate(537.953504 552.008549) scale(0.14 -0.14)">
     <defs>
      <path id="DejaVuSans-57" d="M 213 4666 
L 850 4666 
L 1831 722 
L 2809 4666 
L 3519 4666 
L 4500 722 
L 5478 4666 
L 6119 4666 
L 4947 0 
L 4153 0 
L 3169 4050 
L 2175 0 
L 1381 0 
L 213 4666 
z
" transform="scale(0.015625)"/>
     </defs>
     <use xlink:href="#DejaVuSans-53"/>
     <use xlink:href="#DejaVuSans-57" transform="translate(63.476562 0)"/>
    </g>
   </g>
   <g id="text_12">
    <!-- C -->
    <g style="fill: #1b2536" transform="translate(537.953504 602.368623) scale(0.14 -0.14)">
     <defs>
      <path id="DejaVuSans-43" d="M 4122 4306 
L 4122 3641 
Q 3803 3938 3442 4084 
Q 3081 4231 2675 4231 
Q 1875 4231 1450 3742 
Q 1025 3253 1025 2328 
Q 1025 1406 1450 917 
Q 1875 428 2675 428 
Q 3081 428 3442 575 
Q 3803 722 4122 1019 
L 4122 359 
Q 3791 134 3420 21 
Q 3050 -91 2638 -91 
Q 1578 -91 968 557 
Q 359 1206 359 2328 
Q 359 3453 968 4101 
Q 1578 4750 2638 4750 
Q 3056 4750 3426 4639 
Q 3797 4528 4122 4306 
z
" transform="scale(0.015625)"/>
     </defs>
     <use xlink:href="#DejaVuSans-43"/>
    </g>
   </g>
   <g id="text_13">
    <!-- SWG -->
    <g style="fill: #1b2536" transform="translate(537.953504 652.728697) scale(0.14 -0.14)">
     <use xlink:href="#DejaVuSans-53"/>
     <use xlink:href="#DejaVuSans-57" transform="translate(63.476562 0)"/>
     <use xlink:href="#DejaVuSans-47" transform="translate(162.353516 0)"/>
    </g>
   </g>
   <g id="text_14">
    <!-- Rotary -->
    <g style="fill: #1b2536" transform="translate(586.682131 530.438901) scale(0.12 -0.12)">
     <defs>
      <path id="DejaVuSans-74" d="M 1172 4494 
L 1172 3500 
L 2356 3500 
L 2356 3053 
L 1172 3053 
L 1172 1153 
Q 1172 725 1289 603 
Q 1406 481 1766 481 
L 2356 481 
L 2356 0 
L 1766 0 
Q 1100 0 847 248 
Q 594 497 594 1153 
L 594 3053 
L 172 3053 
L 172 3500 
L 594 3500 
L 594 4494 
L 1172 4494 
z
" transform="scale(0.015625)"/>
     </defs>
     <use xlink:href="#DejaVuSans-52"/>
     <use xlink:href="#DejaVuSans-6f" transform="translate(64.982422 0)"/>
     <use xlink:href="#DejaVuSans-74" transform="translate(126.164062 0)"/>
     <use xlink:href="#DejaVuSans-61" transform="translate(165.373047 0)"/>
     <use xlink:href="#DejaVuSans-72" transform="translate(226.652344 0)"/>
     <use xlink:href="#DejaVuSans-79" transform="translate(267.765625 0)"/>
    </g>
    <!-- encoder -->
    <g style="fill: #1b2536" transform="translate(581.867131 542.052651) scale(0.12 -0.12)">
     <defs>
      <path id="DejaVuSans-6e" d="M 3513 2113 
L 3513 0 
L 2938 0 
L 2938 2094 
Q 2938 2591 2744 2837 
Q 2550 3084 2163 3084 
Q 1697 3084 1428 2787 
Q 1159 2491 1159 1978 
L 1159 0 
L 581 0 
L 581 3500 
L 1159 3500 
L 1159 2956 
Q 1366 3272 1645 3428 
Q 1925 3584 2291 3584 
Q 2894 3584 3203 3211 
Q 3513 2838 3513 2113 
z
" transform="scale(0.015625)"/>
      <path id="DejaVuSans-64" d="M 2906 2969 
L 2906 4863 
L 3481 4863 
L 3481 0 
L 2906 0 
L 2906 525 
Q 2725 213 2448 61 
Q 2172 -91 1784 -91 
Q 1150 -91 751 415 
Q 353 922 353 1747 
Q 353 2572 751 3078 
Q 1150 3584 1784 3584 
Q 2172 3584 2448 3432 
Q 2725 3281 2906 2969 
z
M 947 1747 
Q 947 1113 1208 752 
Q 1469 391 1925 391 
Q 2381 391 2643 752 
Q 2906 1113 2906 1747 
Q 2906 2381 2643 2742 
Q 2381 3103 1925 3103 
Q 1469 3103 1208 2742 
Q 947 2381 947 1747 
z
" transform="scale(0.015625)"/>
     </defs>
     <use xlink:href="#DejaVuSans-65"/>
     <use xlink:href="#DejaVuSans-6e" transform="translate(61.523438 0)"/>
     <use xlink:href="#DejaVuSans-63" transform="translate(124.902344 0)"/>
     <use xlink:href="#DejaVuSans-6f" transform="translate(179.882812 0)"/>
     <use xlink:href="#DejaVuSans-64" transform="translate(241.064453 0)"/>
     <use xlink:href="#DejaVuSans-65" transform="translate(304.541016 0)"/>
     <use xlink:href="#DejaVuSans-72" transform="translate(366.064453 0)"/>
    </g>
    <!-- (knob + -->
    <g style="fill: #1b2536" transform="translate(582.266506 553.666401) scale(0.12 -0.12)">
     <defs>
      <path id="DejaVuSans-28" d="M 1984 4856 
Q 1566 4138 1362 3434 
Q 1159 2731 1159 2009 
Q 1159 1288 1364 580 
Q 1569 -128 1984 -844 
L 1484 -844 
Q 1016 -109 783 600 
Q 550 1309 550 2009 
Q 550 2706 781 3412 
Q 1013 4119 1484 4856 
L 1984 4856 
z
" transform="scale(0.015625)"/>
      <path id="DejaVuSans-6b" d="M 581 4863 
L 1159 4863 
L 1159 1991 
L 2875 3500 
L 3609 3500 
L 1753 1863 
L 3688 0 
L 2938 0 
L 1159 1709 
L 1159 0 
L 581 0 
L 581 4863 
z
" transform="scale(0.015625)"/>
      <path id="DejaVuSans-2b" d="M 2944 4013 
L 2944 2272 
L 4684 2272 
L 4684 1741 
L 2944 1741 
L 2944 0 
L 2419 0 
L 2419 1741 
L 678 1741 
L 678 2272 
L 2419 2272 
L 2419 4013 
L 2944 4013 
z
" transform="scale(0.015625)"/>
     </defs>
     <use xlink:href="#DejaVuSans-28"/>
     <use xlink:href="#DejaVuSans-6b" transform="translate(39.013672 0)"/>
     <use xlink:href="#DejaVuSans-6e" transform="translate(96.923828 0)"/>
     <use xlink:href="#DejaVuSans-6f" transform="translate(160.302734 0)"/>
     <use xlink:href="#DejaVuSans-62" transform="translate(221.484375 0)"/>
     <use xlink:href="#DejaVuSans-20" transform="translate(284.960938 0)"/>
     <use xlink:href="#DejaVuSans-2b" transform="translate(316.748047 0)"/>
    </g>
    <!-- button) -->
    <g style="fill: #1b2536" transform="translate(584.168694 565.280151) scale(0.12 -0.12)">
     <defs>
      <path id="DejaVuSans-75" d="M 544 1381 
L 544 3500 
L 1119 3500 
L 1119 1403 
Q 1119 906 1312 657 
Q 1506 409 1894 409 
Q 2359 409 2629 706 
Q 2900 1003 2900 1516 
L 2900 3500 
L 3475 3500 
L 3475 0 
L 2900 0 
L 2900 538 
Q 2691 219 2414 64 
Q 2138 -91 1772 -91 
Q 1169 -91 856 284 
Q 544 659 544 1381 
z
M 1991 3584 
L 1991 3584 
z
" transform="scale(0.015625)"/>
      <path id="DejaVuSans-29" d="M 513 4856 
L 1013 4856 
Q 1481 4119 1714 3412 
Q 1947 2706 1947 2009 
Q 1947 1309 1714 600 
Q 1481 -109 1013 -844 
L 513 -844 
Q 928 -128 1133 580 
Q 1338 1288 1338 2009 
Q 1338 2731 1133 3434 
Q 928 4138 513 4856 
z
" transform="scale(0.015625)"/>
     </defs>
     <use xlink:href="#DejaVuSans-62"/>
     <use xlink:href="#DejaVuSans-75" transform="translate(63.476562 0)"/>
     <use xlink:href="#DejaVuSans-74" transform="translate(126.855469 0)"/>
     <use xlink:href="#DejaVuSans-74" transform="translate(166.064453 0)"/>
     <use xlink:href="#DejaVuSans-6f" transform="translate(205.273438 0)"/>
     <use xlink:href="#DejaVuSans-6e" transform="translate(266.455078 0)"/>
     <use xlink:href="#DejaVuSans-29" transform="translate(329.833984 0)"/>
    </g>
   </g>
   <g id="text_15">
    <!-- V5 -->
    <g style="fill: #1b2536" transform="translate(537.953504 235.459513) scale(0.14 -0.14)">
     <use xlink:href="#DejaVuSans-56"/>
     <use xlink:href="#DejaVuSans-35" transform="translate(68.408203 0)"/>
    </g>
   </g>
   <g id="text_16">
    <!-- DIN -->
    <g style="fill: #1b2536" transform="translate(537.953504 282.222438) scale(0.14 -0.14)">
     <defs>
      <path id="DejaVuSans-49" d="M 628 4666 
L 1259 4666 
L 1259 0 
L 628 0 
L 628 4666 
z
" transform="scale(0.015625)"/>
     </defs>
     <use xlink:href="#DejaVuSans-44"/>
     <use xlink:href="#DejaVuSans-49" transform="translate(77.001953 0)"/>
     <use xlink:href="#DejaVuSans-4e" transform="translate(106.494141 0)"/>
    </g>
   </g>
   <g id="text_17">
    <!-- GNDN -->
    <g style="fill: #1b2536" transform="translate(537.953504 328.985364) scale(0.14 -0.14)">
     <use xlink:href="#DejaVuSans-47"/>
     <use xlink:href="#DejaVuSans-4e" transform="translate(77.490234 0)"/>
     <use xlink:href="#DejaVuSans-44" transform="translate(152.294922 0)"/>
     <use xlink:href="#DejaVuSans-4e" transform="translate(229.296875 0)"/>
    </g>
   </g>
   <g id="text_18">
    <!-- 12-pixel -->
    <g style="fill: #1b2536" transform="translate(584.099768 266.459665) scale(0.12 -0.12)">
     <defs>
      <path id="DejaVuSans-2d" d="M 313 2009 
L 1997 2009 
L 1997 1497 
L 313 1497 
L 313 2009 
z
" transform="scale(0.015625)"/>
      <path id="DejaVuSans-78" d="M 3513 3500 
L 2247 1797 
L 3578 0 
L 2900 0 
L 1881 1375 
L 863 0 
L 184 0 
L 1544 1831 
L 300 3500 
L 978 3500 
L 1906 2253 
L 2834 3500 
L 3513 3500 
z
" transform="scale(0.015625)"/>
      <path id="DejaVuSans-6c" d="M 603 4863 
L 1178 4863 
L 1178 0 
L 603 0 
L 603 4863 
z
" transform="scale(0.015625)"/>
     </defs>
     <use xlink:href="#DejaVuSans-31"/>
     <use xlink:href="#DejaVuSans-32" transform="translate(63.623047 0)"/>
     <use xlink:href="#DejaVuSans-2d" transform="translate(127.246094 0)"/>
     <use xlink:href="#DejaVuSans-70" transform="translate(163.330078 0)"/>
     <use xlink:href="#DejaVuSans-69" transform="translate(226.806641 0)"/>
     <use xlink:href="#DejaVuSans-78" transform="translate(254.589844 0)"/>
     <use xlink:href="#DejaVuSans-65" transform="translate(310.644531 0)"/>
     <use xlink:href="#DejaVuSans-6c" transform="translate(372.167969 0)"/>
    </g>
    <!-- NeoPixel strip -->
    <g style="fill: #1b2536" transform="translate(567.046643 278.073415) scale(0.12 -0.12)">
     <use xlink:href="#DejaVuSans-4e"/>
     <use xlink:href="#DejaVuSans-65" transform="translate(74.804688 0)"/>
     <use xlink:href="#DejaVuSans-6f" transform="translate(136.328125 0)"/>
     <use xlink:href="#DejaVuSans-50" transform="translate(197.509766 0)"/>
     <use xlink:href="#DejaVuSans-69" transform="translate(255.5625 0)"/>
     <use xlink:href="#DejaVuSans-78" transform="translate(283.345703 0)"/>
     <use xlink:href="#DejaVuSans-65" transform="translate(339.400391 0)"/>
     <use xlink:href="#DejaVuSans-6c" transform="translate(400.923828 0)"/>
     <use xlink:href="#DejaVuSans-20" transform="translate(428.707031 0)"/>
     <use xlink:href="#DejaVuSans-73" transform="translate(460.494141 0)"/>
     <use xlink:href="#DejaVuSans-74" transform="translate(512.59375 0)"/>
     <use xlink:href="#DejaVuSans-72" transform="translate(551.802734 0)"/>
     <use xlink:href="#DejaVuSans-69" transform="translate(592.916016 0)"/>
     <use xlink:href="#DejaVuSans-70" transform="translate(620.699219 0)"/>
    </g>
    <!-- (WS2812B) -->
    <g style="fill: #1b2536" transform="translate(574.287893 289.687165) scale(0.12 -0.12)">
     <defs>
      <path id="DejaVuSans-38" d="M 2034 2216 
Q 1584 2216 1326 1975 
Q 1069 1734 1069 1313 
Q 1069 891 1326 650 
Q 1584 409 2034 409 
Q 2484 409 2743 651 
Q 3003 894 3003 1313 
Q 3003 1734 2745 1975 
Q 2488 2216 2034 2216 
z
M 1403 2484 
Q 997 2584 770 2862 
Q 544 3141 544 3541 
Q 544 4100 942 4425 
Q 1341 4750 2034 4750 
Q 2731 4750 3128 4425 
Q 3525 4100 3525 3541 
Q 3525 3141 3298 2862 
Q 3072 2584 2669 2484 
Q 3125 2378 3379 2068 
Q 3634 1759 3634 1313 
Q 3634 634 3220 271 
Q 2806 -91 2034 -91 
Q 1263 -91 848 271 
Q 434 634 434 1313 
Q 434 1759 690 2068 
Q 947 2378 1403 2484 
z
M 1172 3481 
Q 1172 3119 1398 2916 
Q 1625 2713 2034 2713 
Q 2441 2713 2670 2916 
Q 2900 3119 2900 3481 
Q 2900 3844 2670 4047 
Q 2441 4250 2034 4250 
Q 1625 4250 1398 4047 
Q 1172 3844 1172 3481 
z
" transform="scale(0.015625)"/>
     </defs>
     <use xlink:href="#DejaVuSans-28"/>
     <use xlink:href="#DejaVuSans-57" transform="translate(39.013672 0)"/>
     <use xlink:href="#DejaVuSans-53" transform="translate(137.890625 0)"/>
     <use xlink:href="#DejaVuSans-32" transform="translate(201.367188 0)"/>
     <use xlink:href="#DejaVuSans-38" transform="translate(264.990234 0)"/>
     <use xlink:href="#DejaVuSans-31" transform="translate(328.613281 0)"/>
     <use xlink:href="#DejaVuSans-32" transform="translate(392.236328 0)"/>
     <use xlink:href="#DejaVuSans-42" transform="translate(455.859375 0)"/>
     <use xlink:href="#DejaVuSans-29" transform="translate(524.462891 0)"/>
    </g>
   </g>
   <g id="text_19">
    <!-- GP0 → DIN -->
    <g style="fill: #cc7a00" transform="translate(391.891893 265.280213) scale(0.11 -0.11)">
     <defs>
      <path id="DejaVuSans-2192" d="M 5050 2147 
L 5050 1866 
L 3822 638 
L 3447 1013 
L 4175 1741 
L 366 1741 
L 366 2272 
L 4175 2272 
L 3447 3000 
L 3822 3375 
L 5050 2147 
z
" transform="scale(0.015625)"/>
     </defs>
     <use xlink:href="#DejaVuSans-47"/>
     <use xlink:href="#DejaVuSans-50" transform="translate(77.490234 0)"/>
     <use xlink:href="#DejaVuSans-30" transform="translate(137.792969 0)"/>
     <use xlink:href="#DejaVuSans-20" transform="translate(201.416016 0)"/>
     <use xlink:href="#DejaVuSans-2192" transform="translate(233.203125 0)"/>
     <use xlink:href="#DejaVuSans-20" transform="translate(316.992188 0)"/>
     <use xlink:href="#DejaVuSans-44" transform="translate(348.779297 0)"/>
     <use xlink:href="#DejaVuSans-49" transform="translate(425.78125 0)"/>
     <use xlink:href="#DejaVuSans-4e" transform="translate(455.273438 0)"/>
    </g>
   </g>
   <g id="text_20">
    <!-- GP12 → A (CLK) -->
    <g style="fill: #cc7a00" transform="translate(381.959471 435.633288) scale(0.1 -0.1)">
     <defs>
      <path id="DejaVuSans-4c" d="M 628 4666 
L 1259 4666 
L 1259 531 
L 3531 531 
L 3531 0 
L 628 0 
L 628 4666 
z
" transform="scale(0.015625)"/>
      <path id="DejaVuSans-4b" d="M 628 4666 
L 1259 4666 
L 1259 2694 
L 3353 4666 
L 4166 4666 
L 1850 2491 
L 4331 0 
L 3500 0 
L 1259 2247 
L 1259 0 
L 628 0 
L 628 4666 
z
" transform="scale(0.015625)"/>
     </defs>
     <use xlink:href="#DejaVuSans-47"/>
     <use xlink:href="#DejaVuSans-50" transform="translate(77.490234 0)"/>
     <use xlink:href="#DejaVuSans-31" transform="translate(137.792969 0)"/>
     <use xlink:href="#DejaVuSans-32" transform="translate(201.416016 0)"/>
     <use xlink:href="#DejaVuSans-20" transform="translate(265.039062 0)"/>
     <use xlink:href="#DejaVuSans-2192" transform="translate(296.826172 0)"/>
     <use xlink:href="#DejaVuSans-20" transform="translate(380.615234 0)"/>
     <use xlink:href="#DejaVuSans-41" transform="translate(412.402344 0)"/>
     <use xlink:href="#DejaVuSans-20" transform="translate(480.810547 0)"/>
     <use xlink:href="#DejaVuSans-28" transform="translate(512.597656 0)"/>
     <use xlink:href="#DejaVuSans-43" transform="translate(551.611328 0)"/>
     <use xlink:href="#DejaVuSans-4c" transform="translate(621.435547 0)"/>
     <use xlink:href="#DejaVuSans-4b" transform="translate(677.148438 0)"/>
     <use xlink:href="#DejaVuSans-29" transform="translate(742.724609 0)"/>
    </g>
   </g>
   <g id="text_21">
    <!-- GP13 → B (DT) -->
    <g style="fill: #cc7a00" transform="translate(384.601658 485.993362) scale(0.1 -0.1)">
     <defs>
      <path id="DejaVuSans-54" d="M -19 4666 
L 3928 4666 
L 3928 4134 
L 2272 4134 
L 2272 0 
L 1638 0 
L 1638 4134 
L -19 4134 
L -19 4666 
z
" transform="scale(0.015625)"/>
     </defs>
     <use xlink:href="#DejaVuSans-47"/>
     <use xlink:href="#DejaVuSans-50" transform="translate(77.490234 0)"/>
     <use xlink:href="#DejaVuSans-31" transform="translate(137.792969 0)"/>
     <use xlink:href="#DejaVuSans-33" transform="translate(201.416016 0)"/>
     <use xlink:href="#DejaVuSans-20" transform="translate(265.039062 0)"/>
     <use xlink:href="#DejaVuSans-2192" transform="translate(296.826172 0)"/>
     <use xlink:href="#DejaVuSans-20" transform="translate(380.615234 0)"/>
     <use xlink:href="#DejaVuSans-42" transform="translate(412.402344 0)"/>
     <use xlink:href="#DejaVuSans-20" transform="translate(481.005859 0)"/>
     <use xlink:href="#DejaVuSans-28" transform="translate(512.792969 0)"/>
     <use xlink:href="#DejaVuSans-44" transform="translate(551.806641 0)"/>
     <use xlink:href="#DejaVuSans-54" transform="translate(628.808594 0)"/>
     <use xlink:href="#DejaVuSans-29" transform="translate(689.892578 0)"/>
    </g>
   </g>
   <g id="text_22">
    <!-- GP14 → SW (knob button) -->
    <g style="fill: #cc7a00" transform="translate(356.43994 536.353436) scale(0.1 -0.1)">
     <use xlink:href="#DejaVuSans-47"/>
     <use xlink:href="#DejaVuSans-50" transform="translate(77.490234 0)"/>
     <use xlink:href="#DejaVuSans-31" transform="translate(137.792969 0)"/>
     <use xlink:href="#DejaVuSans-34" transform="translate(201.416016 0)"/>
     <use xlink:href="#DejaVuSans-20" transform="translate(265.039062 0)"/>
     <use xlink:href="#DejaVuSans-2192" transform="translate(296.826172 0)"/>
     <use xlink:href="#DejaVuSans-20" transform="translate(380.615234 0)"/>
     <use xlink:href="#DejaVuSans-53" transform="translate(412.402344 0)"/>
     <use xlink:href="#DejaVuSans-57" transform="translate(475.878906 0)"/>
     <use xlink:href="#DejaVuSans-20" transform="translate(574.755859 0)"/>
     <use xlink:href="#DejaVuSans-28" transform="translate(606.542969 0)"/>
     <use xlink:href="#DejaVuSans-6b" transform="translate(645.556641 0)"/>
     <use xlink:href="#DejaVuSans-6e" transform="translate(703.466797 0)"/>
     <use xlink:href="#DejaVuSans-6f" transform="translate(766.845703 0)"/>
     <use xlink:href="#DejaVuSans-62" transform="translate(828.027344 0)"/>
     <use xlink:href="#DejaVuSans-20" transform="translate(891.503906 0)"/>
     <use xlink:href="#DejaVuSans-62" transform="translate(923.291016 0)"/>
     <use xlink:href="#DejaVuSans-75" transform="translate(986.767578 0)"/>
     <use xlink:href="#DejaVuSans-74" transform="translate(1050.146484 0)"/>
     <use xlink:href="#DejaVuSans-74" transform="translate(1089.355469 0)"/>
     <use xlink:href="#DejaVuSans-6f" transform="translate(1128.564453 0)"/>
     <use xlink:href="#DejaVuSans-6e" transform="translate(1189.746094 0)"/>
     <use xlink:href="#DejaVuSans-29" transform="translate(1253.125 0)"/>
    </g>
   </g>
   <g id="text_23">
    <!-- Extra -->
    <g style="fill: #cc7a00" transform="translate(393.099445 579.553389) scale(0.1 -0.1)">
     <defs>
      <path id="DejaVuSans-45" d="M 628 4666 
L 3578 4666 
L 3578 4134 
L 1259 4134 
L 1259 2753 
L 3481 2753 
L 3481 2222 
L 1259 2222 
L 1259 531 
L 3634 531 
L 3634 0 
L 628 0 
L 628 4666 
z
" transform="scale(0.015625)"/>
     </defs>
     <use xlink:href="#DejaVuSans-45"/>
     <use xlink:href="#DejaVuSans-78" transform="translate(63.183594 0)"/>
     <use xlink:href="#DejaVuSans-74" transform="translate(122.363281 0)"/>
     <use xlink:href="#DejaVuSans-72" transform="translate(161.572266 0)"/>
     <use xlink:href="#DejaVuSans-61" transform="translate(202.685547 0)"/>
    </g>
    <!-- push button -->
    <g style="fill: #cc7a00" transform="translate(376.101007 589.231514) scale(0.1 -0.1)">
     <defs>
      <path id="DejaVuSans-68" d="M 3513 2113 
L 3513 0 
L 2938 0 
L 2938 2094 
Q 2938 2591 2744 2837 
Q 2550 3084 2163 3084 
Q 1697 3084 1428 2787 
Q 1159 2491 1159 1978 
L 1159 0 
L 581 0 
L 581 4863 
L 1159 4863 
L 1159 2956 
Q 1366 3272 1645 3428 
Q 1925 3584 2291 3584 
Q 2894 3584 3203 3211 
Q 3513 2838 3513 2113 
z
" transform="scale(0.015625)"/>
     </defs>
     <use xlink:href="#DejaVuSans-70"/>
     <use xlink:href="#DejaVuSans-75" transform="translate(63.476562 0)"/>
     <use xlink:href="#DejaVuSans-73" transform="translate(126.855469 0)"/>
     <use xlink:href="#DejaVuSans-68" transform="translate(178.955078 0)"/>
     <use xlink:href="#DejaVuSans-20" transform="translate(242.333984 0)"/>
     <use xlink:href="#DejaVuSans-62" transform="translate(274.121094 0)"/>
     <use xlink:href="#DejaVuSans-75" transform="translate(337.597656 0)"/>
     <use xlink:href="#DejaVuSans-74" transform="translate(400.976562 0)"/>
     <use xlink:href="#DejaVuSans-74" transform="translate(440.185547 0)"/>
     <use xlink:href="#DejaVuSans-6f" transform="translate(479.394531 0)"/>
     <use xlink:href="#DejaVuSans-6e" transform="translate(540.576172 0)"/>
    </g>
   </g>
   <g id="text_24">
    <!-- VSYS  (+5 V power) -->
    <g style="fill: #c81e1e" transform="translate(204.915305 166.358639) scale(0.11 -0.11)">
     <defs>
      <path id="DejaVuSans-77" d="M 269 3500 
L 844 3500 
L 1563 769 
L 2278 3500 
L 2956 3500 
L 3675 769 
L 4391 3500 
L 4966 3500 
L 4050 0 
L 3372 0 
L 2619 2869 
L 1863 0 
L 1184 0 
L 269 3500 
z
" transform="scale(0.015625)"/>
     </defs>
     <use xlink:href="#DejaVuSans-56"/>
     <use xlink:href="#DejaVuSans-53" transform="translate(68.408203 0)"/>
     <use xlink:href="#DejaVuSans-59" transform="translate(131.884766 0)"/>
     <use xlink:href="#DejaVuSans-53" transform="translate(192.96875 0)"/>
     <use xlink:href="#DejaVuSans-20" transform="translate(256.445312 0)"/>
     <use xlink:href="#DejaVuSans-20" transform="translate(288.232422 0)"/>
     <use xlink:href="#DejaVuSans-28" transform="translate(320.019531 0)"/>
     <use xlink:href="#DejaVuSans-2b" transform="translate(359.033203 0)"/>
     <use xlink:href="#DejaVuSans-35" transform="translate(442.822266 0)"/>
     <use xlink:href="#DejaVuSans-20" transform="translate(506.445312 0)"/>
     <use xlink:href="#DejaVuSans-56" transform="translate(538.232422 0)"/>
     <use xlink:href="#DejaVuSans-20" transform="translate(606.640625 0)"/>
     <use xlink:href="#DejaVuSans-70" transform="translate(638.427734 0)"/>
     <use xlink:href="#DejaVuSans-6f" transform="translate(701.904297 0)"/>
     <use xlink:href="#DejaVuSans-77" transform="translate(763.085938 0)"/>
     <use xlink:href="#DejaVuSans-65" transform="translate(844.873047 0)"/>
     <use xlink:href="#DejaVuSans-72" transform="translate(906.396484 0)"/>
     <use xlink:href="#DejaVuSans-29" transform="translate(947.509766 0)"/>
    </g>
   </g>
   <g id="patch_11">
    <path d="M 18.165598 206.056636 
C 19.310368 206.056636 20.408405 205.601814 21.21788 204.79234 
C 22.027354 203.982865 22.482176 202.884828 22.482176 201.740058 
C 22.482176 200.595288 22.027354 199.497251 21.21788 198.687777 
C 20.408405 197.878302 19.310368 197.42348 18.165598 197.42348 
C 17.020828 197.42348 15.922791 197.878302 15.113317 198.687777 
C 14.303842 199.497251 13.84902 200.595288 13.84902 201.740058 
C 13.84902 202.884828 14.303842 203.982865 15.113317 204.79234 
C 15.922791 205.601814 17.020828 206.056636 18.165598 206.056636 
z
" clip-path="url(#p743d668df6)" style="fill: #ffffff; stroke: #c81e1e; stroke-width: 2; stroke-linejoin: miter"/>
   </g>
   <g id="patch_12">
    <path d="M 18.165598 233.394962 
C 19.310368 233.394962 20.408405 232.94014 21.21788 232.130665 
C 22.027354 231.321191 22.482176 230.223154 22.482176 229.078384 
C 22.482176 227.933614 22.027354 226.835577 21.21788 226.026103 
C 20.408405 225.216628 19.310368 224.761806 18.165598 224.761806 
C 17.020828 224.761806 15.922791 225.216628 15.113317 226.026103 
C 14.303842 226.835577 13.84902 227.933614 13.84902 229.078384 
C 13.84902 230.223154 14.303842 231.321191 15.113317 232.130665 
C 15.922791 232.94014 17.020828 233.394962 18.165598 233.394962 
z
" clip-path="url(#p743d668df6)" style="fill: #ffffff; stroke: #c81e1e; stroke-width: 2; stroke-linejoin: miter"/>
   </g>
   <g id="text_25">
    <!-- Power -->
    <g style="fill: #111111" transform="translate(34.352765 216.926682) scale(0.1 -0.1)">
     <use xlink:href="#DejaVuSans-50"/>
     <use xlink:href="#DejaVuSans-6f" transform="translate(56.677734 0)"/>
     <use xlink:href="#DejaVuSans-77" transform="translate(117.859375 0)"/>
     <use xlink:href="#DejaVuSans-65" transform="translate(199.646484 0)"/>
     <use xlink:href="#DejaVuSans-72" transform="translate(261.169922 0)"/>
    </g>
    <!-- switch -->
    <g style="fill: #111111" transform="translate(34.352765 226.604807) scale(0.1 -0.1)">
     <use xlink:href="#DejaVuSans-73"/>
     <use xlink:href="#DejaVuSans-77" transform="translate(52.099609 0)"/>
     <use xlink:href="#DejaVuSans-69" transform="translate(133.886719 0)"/>
     <use xlink:href="#DejaVuSans-74" transform="translate(161.669922 0)"/>
     <use xlink:href="#DejaVuSans-63" transform="translate(200.878906 0)"/>
     <use xlink:href="#DejaVuSans-68" transform="translate(255.859375 0)"/>
    </g>
   </g>
   <g id="text_26">
    <!-- 3×AA -->
    <g style="fill: #111111" transform="translate(34.352765 269.08533) scale(0.1 -0.1)">
     <defs>
      <path id="DejaVuSans-d7" d="M 4488 3438 
L 3059 2003 
L 4488 575 
L 4116 197 
L 2681 1631 
L 1247 197 
L 878 575 
L 2303 2003 
L 878 3438 
L 1247 3816 
L 2681 2381 
L 4116 3816 
L 4488 3438 
z
" transform="scale(0.015625)"/>
     </defs>
     <use xlink:href="#DejaVuSans-33"/>
     <use xlink:href="#DejaVuSans-d7" transform="translate(63.623047 0)"/>
     <use xlink:href="#DejaVuSans-41" transform="translate(147.412109 0)"/>
     <use xlink:href="#DejaVuSans-41" transform="translate(218.570312 0)"/>
    </g>
    <!-- 4.5 V -->
    <g style="fill: #111111" transform="translate(34.352765 278.763455) scale(0.1 -0.1)">
     <defs>
      <path id="DejaVuSans-2e" d="M 684 794 
L 1344 794 
L 1344 0 
L 684 0 
L 684 794 
z
" transform="scale(0.015625)"/>
     </defs>
     <use xlink:href="#DejaVuSans-34"/>
     <use xlink:href="#DejaVuSans-2e" transform="translate(63.623047 0)"/>
     <use xlink:href="#DejaVuSans-35" transform="translate(95.410156 0)"/>
     <use xlink:href="#DejaVuSans-20" transform="translate(159.033203 0)"/>
     <use xlink:href="#DejaVuSans-56" transform="translate(190.820312 0)"/>
    </g>
   </g>
   <g id="text_27">
    <!-- Wire colors -->
    <g style="fill: #111111" transform="translate(14.56845 58.371441) scale(0.11 -0.11)">
     <use xlink:href="#DejaVuSans-57"/>
     <use xlink:href="#DejaVuSans-69" transform="translate(96.626953 0)"/>
     <use xlink:href="#DejaVuSans-72" transform="translate(124.410156 0)"/>
     <use xlink:href="#DejaVuSans-65" transform="translate(163.273438 0)"/>
     <use xlink:href="#DejaVuSans-20" transform="translate(224.796875 0)"/>
     <use xlink:href="#DejaVuSans-63" transform="translate(256.583984 0)"/>
     <use xlink:href="#DejaVuSans-6f" transform="translate(311.564453 0)"/>
     <use xlink:href="#DejaVuSans-6c" transform="translate(372.746094 0)"/>
     <use xlink:href="#DejaVuSans-6f" transform="translate(400.529297 0)"/>
     <use xlink:href="#DejaVuSans-72" transform="translate(461.710938 0)"/>
     <use xlink:href="#DejaVuSans-73" transform="translate(502.824219 0)"/>
    </g>
   </g>
   <g id="text_28">
    <!-- Power (+5 V) -->
    <g style="fill: #111111" transform="translate(58.453657 83.275541) scale(0.1 -0.1)">
     <use xlink:href="#DejaVuSans-50"/>
     <use xlink:href="#DejaVuSans-6f" transform="translate(56.677734 0)"/>
     <use xlink:href="#DejaVuSans-77" transform="translate(117.859375 0)"/>
     <use xlink:href="#DejaVuSans-65" transform="translate(199.646484 0)"/>
     <use xlink:href="#DejaVuSans-72" transform="translate(261.169922 0)"/>
     <use xlink:href="#DejaVuSans-20" transform="translate(302.283203 0)"/>
     <use xlink:href="#DejaVuSans-28" transform="translate(334.070312 0)"/>
     <use xlink:href="#DejaVuSans-2b" transform="translate(373.083984 0)"/>
     <use xlink:href="#DejaVuSans-35" transform="translate(456.873047 0)"/>
     <use xlink:href="#DejaVuSans-20" transform="translate(520.496094 0)"/>
     <use xlink:href="#DejaVuSans-56" transform="translate(552.283203 0)"/>
     <use xlink:href="#DejaVuSans-29" transform="translate(620.691406 0)"/>
    </g>
   </g>
   <g id="text_29">
    <!-- Data / signal -->
    <g style="fill: #111111" transform="translate(58.453657 108.455578) scale(0.1 -0.1)">
     <defs>
      <path id="DejaVuSans-2f" d="M 1625 4666 
L 2156 4666 
L 531 -594 
L 0 -594 
L 1625 4666 
z
" transform="scale(0.015625)"/>
      <path id="DejaVuSans-67" d="M 2906 1791 
Q 2906 2416 2648 2759 
Q 2391 3103 1925 3103 
Q 1463 3103 1205 2759 
Q 947 2416 947 1791 
Q 947 1169 1205 825 
Q 1463 481 1925 481 
Q 2391 481 2648 825 
Q 2906 1169 2906 1791 
z
M 3481 434 
Q 3481 -459 3084 -895 
Q 2688 -1331 1869 -1331 
Q 1566 -1331 1297 -1286 
Q 1028 -1241 775 -1147 
L 775 -588 
Q 1028 -725 1275 -790 
Q 1522 -856 1778 -856 
Q 2344 -856 2625 -561 
Q 2906 -266 2906 331 
L 2906 616 
Q 2728 306 2450 153 
Q 2172 0 1784 0 
Q 1141 0 747 490 
Q 353 981 353 1791 
Q 353 2603 747 3093 
Q 1141 3584 1784 3584 
Q 2172 3584 2450 3431 
Q 2728 3278 2906 2969 
L 2906 3500 
L 3481 3500 
L 3481 434 
z
" transform="scale(0.015625)"/>
     </defs>
     <use xlink:href="#DejaVuSans-44"/>
     <use xlink:href="#DejaVuSans-61" transform="translate(77.001953 0)"/>
     <use xlink:href="#DejaVuSans-74" transform="translate(138.28125 0)"/>
     <use xlink:href="#DejaVuSans-61" transform="translate(177.490234 0)"/>
     <use xlink:href="#DejaVuSans-20" transform="translate(238.769531 0)"/>
     <use xlink:href="#DejaVuSans-2f" transform="translate(270.556641 0)"/>
     <use xlink:href="#DejaVuSans-20" transform="translate(304.248047 0)"/>
     <use xlink:href="#DejaVuSans-73" transform="translate(336.035156 0)"/>
     <use xlink:href="#DejaVuSans-69" transform="translate(388.134766 0)"/>
     <use xlink:href="#DejaVuSans-67" transform="translate(415.917969 0)"/>
     <use xlink:href="#DejaVuSans-6e" transform="translate(479.394531 0)"/>
     <use xlink:href="#DejaVuSans-61" transform="translate(542.773438 0)"/>
     <use xlink:href="#DejaVuSans-6c" transform="translate(604.052734 0)"/>
    </g>
   </g>
   <g id="text_30">
    <!-- Ground (GND) -->
    <g style="fill: #111111" transform="translate(58.453657 133.635615) scale(0.1 -0.1)">
     <use xlink:href="#DejaVuSans-47"/>
     <use xlink:href="#DejaVuSans-72" transform="translate(77.490234 0)"/>
     <use xlink:href="#DejaVuSans-6f" transform="translate(116.353516 0)"/>
     <use xlink:href="#DejaVuSans-75" transform="translate(177.535156 0)"/>
     <use xlink:href="#DejaVuSans-6e" transform="translate(240.914062 0)"/>
     <use xlink:href="#DejaVuSans-64" transform="translate(304.292969 0)"/>
     <use xlink:href="#DejaVuSans-20" transform="translate(367.769531 0)"/>
     <use xlink:href="#DejaVuSans-28" transform="translate(399.556641 0)"/>
     <use xlink:href="#DejaVuSans-47" transform="translate(438.570312 0)"/>
     <use xlink:href="#DejaVuSans-4e" transform="translate(516.060547 0)"/>
     <use xlink:href="#DejaVuSans-44" transform="translate(590.865234 0)"/>
     <use xlink:href="#DejaVuSans-29" transform="translate(667.867188 0)"/>
    </g>
   </g>
   <g id="text_31">
    <!-- Rotary Spinner Box — Wiring Diagram -->
    <g style="fill: #111111" transform="translate(163.035496 16.309414) scale(0.15 -0.15)">
     <defs>
      <path id="DejaVuSans-2014" d="M 313 1978 
L 6088 1978 
L 6088 1528 
L 313 1528 
L 313 1978 
z
" transform="scale(0.015625)"/>
      <path id="DejaVuSans-6d" d="M 3328 2828 
Q 3544 3216 3844 3400 
Q 4144 3584 4550 3584 
Q 5097 3584 5394 3201 
Q 5691 2819 5691 2113 
L 5691 0 
L 5113 0 
L 5113 2094 
Q 5113 2597 4934 2840 
Q 4756 3084 4391 3084 
Q 3944 3084 3684 2787 
Q 3425 2491 3425 1978 
L 3425 0 
L 2847 0 
L 2847 2094 
Q 2847 2600 2669 2842 
Q 2491 3084 2119 3084 
Q 1678 3084 1418 2786 
Q 1159 2488 1159 1978 
L 1159 0 
L 581 0 
L 581 3500 
L 1159 3500 
L 1159 2956 
Q 1356 3278 1631 3431 
Q 1906 3584 2284 3584 
Q 2666 3584 2933 3390 
Q 3200 3197 3328 2828 
z
" transform="scale(0.015625)"/>
     </defs>
     <use xlink:href="#DejaVuSans-52"/>
     <use xlink:href="#DejaVuSans-6f" transform="translate(64.982422 0)"/>
     <use xlink:href="#DejaVuSans-74" transform="translate(126.164062 0)"/>
     <use xlink:href="#DejaVuSans-61" transform="translate(165.373047 0)"/>
     <use xlink:href="#DejaVuSans-72" transform="translate(226.652344 0)"/>
     <use xlink:href="#DejaVuSans-79" transform="translate(267.765625 0)"/>
     <use xlink:href="#DejaVuSans-20" transform="translate(326.945312 0)"/>
     <use xlink:href="#DejaVuSans-53" transform="translate(358.732422 0)"/>
     <use xlink:href="#DejaVuSans-70" transform="translate(422.208984 0)"/>
     <use xlink:href="#DejaVuSans-69" transform="translate(485.685547 0)"/>
     <use xlink:href="#DejaVuSans-6e" transform="translate(513.46875 0)"/>
     <use xlink:href="#DejaVuSans-6e" transform="translate(576.847656 0)"/>
     <use xlink:href="#DejaVuSans-65" transform="translate(640.226562 0)"/>
     <use xlink:href="#DejaVuSans-72" transform="translate(701.75 0)"/>
     <use xlink:href="#DejaVuSans-20" transform="translate(742.863281 0)"/>
     <use xlink:href="#DejaVuSans-42" transform="translate(774.650391 0)"/>
     <use xlink:href="#DejaVuSans-6f" transform="translate(843.253906 0)"/>
     <use xlink:href="#DejaVuSans-78" transform="translate(901.310547 0)"/>
     <use xlink:href="#DejaVuSans-20" transform="translate(960.490234 0)"/>
     <use xlink:href="#DejaVuSans-2014" transform="translate(992.277344 0)"/>
     <use xlink:href="#DejaVuSans-20" transform="translate(1092.277344 0)"/>
     <use xlink:href="#DejaVuSans-57" transform="translate(1124.064453 0)"/>
     <use xlink:href="#DejaVuSans-69" transform="translate(1220.691406 0)"/>
     <use xlink:href="#DejaVuSans-72" transform="translate(1248.474609 0)"/>
     <use xlink:href="#DejaVuSans-69" transform="translate(1289.587891 0)"/>
     <use xlink:href="#DejaVuSans-6e" transform="translate(1317.371094 0)"/>
     <use xlink:href="#DejaVuSans-67" transform="translate(1380.75 0)"/>
     <use xlink:href="#DejaVuSans-20" transform="translate(1444.226562 0)"/>
     <use xlink:href="#DejaVuSans-44" transform="translate(1476.013672 0)"/>
     <use xlink:href="#DejaVuSans-69" transform="translate(1553.015625 0)"/>
     <use xlink:href="#DejaVuSans-61" transform="translate(1580.798828 0)"/>
     <use xlink:href="#DejaVuSans-67" transform="translate(1642.078125 0)"/>
     <use xlink:href="#DejaVuSans-72" transform="translate(1705.554688 0)"/>
     <use xlink:href="#DejaVuSans-61" transform="translate(1746.667969 0)"/>
     <use xlink:href="#DejaVuSans-6d" transform="translate(1807.947266 0)"/>
    </g>
   </g>
   <g id="patch_13">
    <path d="M 126.080042 716.312099 
C 126.795523 716.312099 127.481797 716.027836 127.987718 715.521914 
C 128.49364 715.015993 128.777903 714.329719 128.777903 713.614238 
C 128.777903 712.898757 128.49364 712.212484 127.987718 711.706562 
C 127.481797 711.200641 126.795523 710.916377 126.080042 710.916377 
C 125.364561 710.916377 124.678288 711.200641 124.172366 711.706562 
C 123.666445 712.212484 123.382181 712.898757 123.382181 713.614238 
C 123.382181 714.329719 123.666445 715.015993 124.172366 715.521914 
C 124.678288 716.027836 125.364561 716.312099 126.080042 716.312099 
z
" clip-path="url(#p743d668df6)" style="fill: #222222; stroke: #222222; stroke-width: 2; stroke-linejoin: miter"/>
   </g>
   <g id="patch_14">
    <path d="M 500.183449 716.312099 
C 500.89893 716.312099 501.585203 716.027836 502.091125 715.521914 
C 502.597046 715.015993 502.88131 714.329719 502.88131 713.614238 
C 502.88131 712.898757 502.597046 712.212484 502.091125 711.706562 
C 501.585203 711.200641 500.89893 710.916377 500.183449 710.916377 
C 499.467968 710.916377 498.781694 711.200641 498.275773 711.706562 
C 497.769851 712.212484 497.485588 712.898757 497.485588 713.614238 
C 497.485588 714.329719 497.769851 715.015993 498.275773 715.521914 
C 498.781694 716.027836 499.467968 716.312099 500.183449 716.312099 
z
" clip-path="url(#p743d668df6)" style="fill: #222222; stroke: #222222; stroke-width: 2; stroke-linejoin: miter"/>
   </g>
   <g id="patch_15">
    <path d="M 500.183449 716.312099 
C 500.89893 716.312099 501.585203 716.027836 502.091125 715.521914 
C 502.597046 715.015993 502.88131 714.329719 502.88131 713.614238 
C 502.88131 712.898757 502.597046 712.212484 502.091125 711.706562 
C 501.585203 711.200641 500.89893 710.916377 500.183449 710.916377 
C 499.467968 710.916377 498.781694 711.200641 498.275773 711.706562 
C 497.769851 712.212484 497.485588 712.898757 497.485588 713.614238 
C 497.485588 714.329719 497.769851 715.015993 498.275773 715.521914 
C 498.781694 716.027836 499.467968 716.312099 500.183449 716.312099 
z
" clip-path="url(#p743d668df6)" style="fill: #222222; stroke: #222222; stroke-width: 2; stroke-linejoin: miter"/>
   </g>
   <g id="patch_16">
    <path d="M 399.463301 716.312099 
C 400.178782 716.312099 400.865055 716.027836 401.370977 715.521914 
C 401.876898 715.015993 402.161162 714.329719 402.161162 713.614238 
C 402.161162 712.898757 401.876898 712.212484 401.370977 711.706562 
C 400.865055 711.200641 400.178782 710.916377 399.463301 710.916377 
C 398.74782 710.916377 398.061546 711.200641 397.555625 711.706562 
C 397.049703 712.212484 396.76544 712.898757 396.76544 713.614238 
C 396.76544 714.329719 397.049703 715.015993 397.555625 715.521914 
C 398.061546 716.027836 398.74782 716.312099 399.463301 716.312099 
z
" clip-path="url(#p743d668df6)" style="fill: #222222; stroke: #222222; stroke-width: 2; stroke-linejoin: miter"/>
   </g>
   <g id="patch_17">
    <path d="M 18.165598 716.312099 
C 18.881079 716.312099 19.567352 716.027836 20.073274 715.521914 
C 20.579196 715.015993 20.863459 714.329719 20.863459 713.614238 
C 20.863459 712.898757 20.579196 712.212484 20.073274 711.706562 
C 19.567352 711.200641 18.881079 710.916377 18.165598 710.916377 
C 17.450117 710.916377 16.763844 711.200641 16.257922 711.706562 
C 15.752001 712.212484 15.467737 712.898757 15.467737 713.614238 
C 15.467737 714.329719 15.752001 715.015993 16.257922 715.521914 
C 16.763844 716.027836 17.450117 716.312099 18.165598 716.312099 
z
" clip-path="url(#p743d668df6)" style="fill: #222222; stroke: #222222; stroke-width: 2; stroke-linejoin: miter"/>
   </g>
   <g id="patch_18">
    <path d="M 18.165598 327.8201 
C 18.881079 327.8201 19.567352 327.535837 20.073274 327.029915 
C 20.579196 326.523994 20.863459 325.83772 20.863459 325.122239 
C 20.863459 324.406758 20.579196 323.720485 20.073274 323.214563 
C 19.567352 322.708642 18.881079 322.424378 18.165598 322.424378 
C 17.450117 322.424378 16.763844 322.708642 16.257922 323.214563 
C 15.752001 323.720485 15.467737 324.406758 15.467737 325.122239 
C 15.467737 325.83772 15.752001 326.523994 16.257922 327.029915 
C 16.763844 327.535837 17.450117 327.8201 18.165598 327.8201 
z
" clip-path="url(#p743d668df6)" style="fill: #222222; stroke: #222222; stroke-width: 2; stroke-linejoin: miter"/>
   </g>
   <g id="patch_19">
    <path d="M 18.165598 176.739879 
C 18.881079 176.739879 19.567352 176.455615 20.073274 175.949693 
C 20.579196 175.443772 20.863459 174.757499 20.863459 174.042017 
C 20.863459 173.326536 20.579196 172.640263 20.073274 172.134342 
C 19.567352 171.62842 18.881079 171.344156 18.165598 171.344156 
C 17.450117 171.344156 16.763844 171.62842 16.257922 172.134342 
C 15.752001 172.640263 15.467737 173.326536 15.467737 174.042017 
C 15.467737 174.757499 15.752001 175.443772 16.257922 175.949693 
C 16.763844 176.455615 17.450117 176.739879 18.165598 176.739879 
z
" clip-path="url(#p743d668df6)" style="fill: #c81e1e; stroke: #c81e1e; stroke-width: 2; stroke-linejoin: miter"/>
   </g>
   <g id="patch_20">
    <path d="M 126.080042 176.739879 
C 126.795523 176.739879 127.481797 176.455615 127.987718 175.949693 
C 128.49364 175.443772 128.777903 174.757499 128.777903 174.042017 
C 128.777903 173.326536 128.49364 172.640263 127.987718 172.134342 
C 127.481797 171.62842 126.795523 171.344156 126.080042 171.344156 
C 125.364561 171.344156 124.678288 171.62842 124.172366 172.134342 
C 123.666445 172.640263 123.382181 173.326536 123.382181 174.042017 
C 123.382181 174.757499 123.666445 175.443772 124.172366 175.949693 
C 124.678288 176.455615 125.364561 176.739879 126.080042 176.739879 
z
" clip-path="url(#p743d668df6)" style="fill: #c81e1e; stroke: #c81e1e; stroke-width: 2; stroke-linejoin: miter"/>
   </g>
   <g id="patch_21">
    <path d="M 126.080042 475.303174 
C 126.795523 475.303174 127.481797 475.01891 127.987718 474.512989 
C 128.49364 474.007067 128.777903 473.320794 128.777903 472.605313 
C 128.777903 471.889832 128.49364 471.203559 127.987718 470.697637 
C 127.481797 470.191715 126.795523 469.907452 126.080042 469.907452 
C 125.364561 469.907452 124.678288 470.191715 124.172366 470.697637 
C 123.666445 471.203559 123.382181 471.889832 123.382181 472.605313 
C 123.382181 473.320794 123.666445 474.007067 124.172366 474.512989 
C 124.678288 475.01891 125.364561 475.303174 126.080042 475.303174 
z
" clip-path="url(#p743d668df6)" style="fill: #c81e1e; stroke: #c81e1e; stroke-width: 2; stroke-linejoin: miter"/>
   </g>
   <g id="patch_22">
    <path d="M 500.183449 234.294249 
C 500.89893 234.294249 501.585203 234.009985 502.091125 233.504064 
C 502.597046 232.998142 502.88131 232.311869 502.88131 231.596388 
C 502.88131 230.880907 502.597046 230.194633 502.091125 229.688712 
C 501.585203 229.18279 500.89893 228.898527 500.183449 228.898527 
C 499.467968 228.898527 498.781694 229.18279 498.275773 229.688712 
C 497.769851 230.194633 497.485588 230.880907 497.485588 231.596388 
C 497.485588 232.311869 497.769851 232.998142 498.275773 233.504064 
C 498.781694 234.009985 499.467968 234.294249 500.183449 234.294249 
z
" clip-path="url(#p743d668df6)" style="fill: #c81e1e; stroke: #c81e1e; stroke-width: 2; stroke-linejoin: miter"/>
   </g>
  </g>
 </g>
 <defs>
  <clipPath id="p743d668df6">
   <rect x="0" y="-0" width="681.12" height="741.312279"/>
  </clipPath>
 </defs>
</svg>
